<mxfile host="Electron" agent="Mozilla/5.0 (Windows NT 10.0; Win64; x64) AppleWebKit/537.36 (KHTML, like Gecko) draw.io/24.7.5 Chrome/126.0.6478.183 Electron/31.3.0 Safari/537.36" version="24.7.5">
  <diagram name="Seite-1" id="yEX_RP_V8Nl6n7RGz66S">
    <mxGraphModel dx="989" dy="600" grid="1" gridSize="10" guides="1" tooltips="1" connect="1" arrows="1" fold="1" page="1" pageScale="1" pageWidth="827" pageHeight="1169" math="0" shadow="0">
      <root>
        <mxCell id="0" />
        <mxCell id="1" parent="0" />
        <mxCell id="HUYn_10A8EfdFhrBSUiN-1" value="" style="aspect=fixed;sketch=0;html=1;dashed=0;whitespace=wrap;verticalLabelPosition=bottom;verticalAlign=top;fillColor=#2875E2;strokeColor=#ffffff;points=[[0.005,0.63,0],[0.1,0.2,0],[0.9,0.2,0],[0.5,0,0],[0.995,0.63,0],[0.72,0.99,0],[0.5,1,0],[0.28,0.99,0]];shape=mxgraph.kubernetes.icon2;kubernetesLabel=1;prIcon=api" vertex="1" parent="1">
          <mxGeometry x="420" y="190" width="50" height="48" as="geometry" />
        </mxCell>
        <mxCell id="HUYn_10A8EfdFhrBSUiN-2" value="" style="shape=flexArrow;endArrow=classic;html=1;rounded=0;" edge="1" parent="1">
          <mxGeometry width="50" height="50" relative="1" as="geometry">
            <mxPoint x="220" y="213.66" as="sourcePoint" />
            <mxPoint x="420" y="214" as="targetPoint" />
          </mxGeometry>
        </mxCell>
        <mxCell id="HUYn_10A8EfdFhrBSUiN-5" value="HTTP Post" style="text;html=1;align=center;verticalAlign=middle;resizable=0;points=[];autosize=1;strokeColor=none;fillColor=none;" vertex="1" parent="1">
          <mxGeometry x="210" y="220" width="80" height="30" as="geometry" />
        </mxCell>
        <mxCell id="HUYn_10A8EfdFhrBSUiN-6" value="" style="shape=flexArrow;endArrow=classic;html=1;rounded=0;" edge="1" parent="1">
          <mxGeometry width="50" height="50" relative="1" as="geometry">
            <mxPoint x="424.8" y="238" as="sourcePoint" />
            <mxPoint x="424.8" y="318" as="targetPoint" />
          </mxGeometry>
        </mxCell>
        <mxCell id="HUYn_10A8EfdFhrBSUiN-7" value="" style="shape=flexArrow;endArrow=classic;html=1;rounded=0;" edge="1" parent="1">
          <mxGeometry width="50" height="50" relative="1" as="geometry">
            <mxPoint x="464.8" y="318" as="sourcePoint" />
            <mxPoint x="464.8" y="238" as="targetPoint" />
          </mxGeometry>
        </mxCell>
        <mxCell id="HUYn_10A8EfdFhrBSUiN-8" value="" style="image;html=1;image=img/lib/clip_art/computers/Database_128x128.png" vertex="1" parent="1">
          <mxGeometry x="405" y="320" width="80" height="80" as="geometry" />
        </mxCell>
        <mxCell id="HUYn_10A8EfdFhrBSUiN-9" value=" {&#xa;   &quot;username&quot;: &quot;Jonas&quot;,&#xa;   &quot;password&quot;: &quot;Admin&quot;&#xa; }" style="text;whiteSpace=wrap;fillColor=#f5f5f5;fontColor=#333333;strokeColor=#666666;rounded=1;" vertex="1" parent="1">
          <mxGeometry x="220" y="250" width="130" height="70" as="geometry" />
        </mxCell>
        <mxCell id="HUYn_10A8EfdFhrBSUiN-10" value="" style="image;html=1;image=img/lib/clip_art/computers/Laptop_128x128.png" vertex="1" parent="1">
          <mxGeometry x="110" y="150" width="80" height="80" as="geometry" />
        </mxCell>
        <mxCell id="HUYn_10A8EfdFhrBSUiN-11" value="" style="image;points=[];aspect=fixed;html=1;align=center;shadow=0;dashed=0;image=img/lib/allied_telesis/computer_and_terminals/Smartphone.svg;" vertex="1" parent="1">
          <mxGeometry x="140.1" y="238" width="19.8" height="43.199999999999996" as="geometry" />
        </mxCell>
        <mxCell id="HUYn_10A8EfdFhrBSUiN-12" value="" style="shape=flexArrow;endArrow=classic;html=1;rounded=0;" edge="1" parent="1">
          <mxGeometry width="50" height="50" relative="1" as="geometry">
            <mxPoint x="410" y="190" as="sourcePoint" />
            <mxPoint x="220" y="190" as="targetPoint" />
          </mxGeometry>
        </mxCell>
        <mxCell id="HUYn_10A8EfdFhrBSUiN-14" value="&amp;nbsp;{&lt;div&gt;&amp;nbsp; &amp;nbsp;&quot;ID&quot;:4,&lt;/div&gt;&lt;div&gt;&amp;nbsp; &amp;nbsp;&quot;NAME&quot;:&quot;Jonas&quot;,&lt;/div&gt;&lt;div&gt;&amp;nbsp; &amp;nbsp;&quot;LEVEL&quot;:10,&lt;/div&gt;&lt;div&gt;&amp;nbsp; &amp;nbsp;&quot;XP&quot;:70,&lt;/div&gt;&lt;div&gt;&amp;nbsp; &amp;nbsp;&quot;EMAIL&quot;:&quot;Jonas@email.de&quot;,&lt;/div&gt;&lt;div&gt;&amp;nbsp; &amp;nbsp;&quot;IMAGE&quot;:&quot;&quot;&lt;/div&gt;&lt;div&gt;&amp;nbsp;}&lt;/div&gt;" style="text;html=1;align=left;verticalAlign=middle;resizable=0;points=[];autosize=1;rounded=1;fillColor=#f5f5f5;fontColor=#333333;strokeColor=#666666;arcSize=9;" vertex="1" parent="1">
          <mxGeometry x="225" y="30" width="180" height="130" as="geometry" />
        </mxCell>
      </root>
    </mxGraphModel>
  </diagram>
</mxfile>
